<svg width="21" height="20" viewBox="0 0 21 20" fill="none" xmlns="http://www.w3.org/2000/svg">
<path d="M10.1667 1.66669C5.57501 1.66669 1.83334 5.40835 1.83334 10C1.83334 14.5917 5.57501 18.3334 10.1667 18.3334C14.7583 18.3334 18.5 14.5917 18.5 10C18.5 5.40835 14.7583 1.66669 10.1667 1.66669ZM9.54168 6.66669C9.54168 6.32502 9.82501 6.04169 10.1667 6.04169C10.5083 6.04169 10.7917 6.32502 10.7917 6.66669V10.8334C10.7917 11.175 10.5083 11.4584 10.1667 11.4584C9.82501 11.4584 9.54168 11.175 9.54168 10.8334V6.66669ZM10.9333 13.65C10.8917 13.7584 10.8333 13.8417 10.7583 13.925C10.675 14 10.5833 14.0584 10.4833 14.1C10.3833 14.1417 10.275 14.1667 10.1667 14.1667C10.0583 14.1667 9.95001 14.1417 9.85001 14.1C9.75001 14.0584 9.65834 14 9.57501 13.925C9.50001 13.8417 9.44168 13.7584 9.40001 13.65C9.35834 13.55 9.33334 13.4417 9.33334 13.3334C9.33334 13.225 9.35834 13.1167 9.40001 13.0167C9.44168 12.9167 9.50001 12.825 9.57501 12.7417C9.65834 12.6667 9.75001 12.6084 9.85001 12.5667C10.05 12.4834 10.2833 12.4834 10.4833 12.5667C10.5833 12.6084 10.675 12.6667 10.7583 12.7417C10.8333 12.825 10.8917 12.9167 10.9333 13.0167C10.975 13.1167 11 13.225 11 13.3334C11 13.4417 10.975 13.55 10.9333 13.65Z" fill="#E51837"/>
</svg>
